#!OML:ASF H:\Terrain\Patient Classification 1\Walking\liu\liu.ASF
:FULLY-SPECIFIED
:DEGREES
421
root 20.184601 33.508801 46.743000 16.328260 0.680158 -9.454860
lowerback -17.548300 5.526280 2.448820
upperback -3.598920 6.980260 4.346140
thorax 5.964320 3.483460 3.900720
lowerneck -38.973598 -13.913620 -29.336800
upperneck 43.846802 -18.008881 28.555401
head 23.552200 -7.306940 12.688860
rclavicle -0.000000 -0.000000
rhumerus -72.361603 20.167601 -177.353607
rradius 66.062798
rwrist -28.205799
rhand -58.078400 -49.227402
rfingers 14.250040
rthumb -4.779200 -109.160004
lclavicle -0.000000 -0.000000
lhumerus -102.058800 -14.303200 185.158997
lradius 44.904400
lwrist 1.769236
lhand -14.374460 -45.085800
lfingers 14.250040
lthumb 37.381401 13.158300
rfemur 49.720600 6.055040 56.639198
rtibia 0.000000
rfoot 18.836020 7.821020
rtoes -44.615002
lfemur -88.259003 4.934060 -37.336601
ltibia 68.906799
lfoot 2.258380 15.559320
ltoes 3.841700
422
root 20.244600 33.551800 47.061798 16.249060 0.975868 -9.348400
lowerback -17.374880 5.278980 2.576800
upperback -3.781860 6.652420 4.235980
thorax 5.699960 3.322520 3.663160
lowerneck -39.451801 -14.155300 -29.196600
upperneck 44.607601 -18.334921 28.232201
head 23.968599 -7.459860 12.506560
rclavicle -0.000000 -0.000000
rhumerus -73.717598 20.030001 -177.997604
rradius 65.182999
rwrist -28.837200
rhand -57.133400 -51.642601
rfingers 14.250040
rthumb -3.866540 -111.584602
lclavicle -0.000000 -0.000000
lhumerus -100.923401 -13.023600 183.761795
lradius 43.783401
lwrist -0.459634
lhand -14.900940 -45.742599
lfingers 14.250040
lthumb 36.875000 12.549780
rfemur 44.403599 5.565720 56.010201
rtibia 11.554860
rfoot 19.162760 8.075860
rtoes -38.730400
lfemur -87.582397 4.250080 -37.435398
ltibia 70.099998
lfoot 0.477222 15.427660
ltoes 3.714320
423
root 20.317400 33.637600 47.400200 16.071180 0.925290 -8.218720
lowerback -16.859039 5.011760 1.618972
upperback -4.227140 6.411820 4.009720
thorax 4.918940 3.202020 3.896280
lowerneck -38.029400 -13.474260 -28.948799
upperneck 44.316200 -17.494900 27.876400
head 23.391001 -7.155620 12.470780
rclavicle -0.000000 -0.000000
rhumerus -75.555801 19.477779 -178.057999
rradius 64.597801
rwrist -27.807199
rhand -54.368401 -57.644199
rfingers 14.250040
rthumb -1.196058 -117.601997
lclavicle -0.000000 -0.000000
lhumerus -100.225998 -10.653300 181.927597
lradius 42.871201
lwrist -3.572920
lhand -13.261400 -44.766399
lfingers 14.250040
lthumb 38.452000 13.372880
rfemur 39.020599 5.350640 53.732601
rtibia 23.164000
rfoot 20.939600 6.323860
rtoes -15.509880
lfemur -86.168404 3.591200 -38.700401
ltibia 70.542801
lfoot -1.059252 15.236360
ltoes 6.866840
424
root 20.392401 33.699001 47.727402 15.764880 0.528102 -6.286520
lowerback -14.637280 5.171440 0.167716
upperback -5.945160 6.821900 3.305420
thorax 1.864978 3.429960 3.846140
lowerneck -35.578800 -13.184760 -29.490400
upperneck 44.554401 -17.341400 28.086000
head 23.006599 -7.203300 12.706240
rclavicle -0.000000 -0.000000
rhumerus -79.681602 17.577000 -178.081604
rradius 64.475197
rwrist -26.299400
rhand -52.160999 -63.343601
rfingers 14.250040
rthumb 0.936074 -123.302002
lclavicle -0.000000 -0.000000
lhumerus -101.582001 -10.239260 181.208801
lradius 42.208599
lwrist -5.050540
lhand -10.814180 -43.158798
lfingers 14.250040
lthumb 40.804401 14.737600
rfemur 34.907799 2.927600 50.394402
rtibia 32.285599
rfoot 22.793800 9.941460
rtoes -27.713600
lfemur -84.336800 2.994560 -40.860802
ltibia 70.511803
lfoot -2.349960 15.548760
ltoes 8.059460
425
root 20.460800 33.756401 48.054401 15.705960 -0.017805 -5.232040
lowerback -15.021220 5.337920 -0.449032
upperback -5.912300 7.086900 2.928220
thorax 2.089240 3.562220 3.844700
lowerneck -35.204800 -13.186520 -29.572599
upperneck 44.374401 -17.280020 27.823200
head 22.843399 -7.225580 12.621360
rclavicle 0.000000 -0.000000
rhumerus -80.799400 16.630039 -177.922394
rradius 63.588799
rwrist -25.854799
rhand -52.234402 -61.928398
rfingers 14.250040
rthumb 0.865054 -121.887001
lclavicle 0.000000 -0.000000
lhumerus -99.999001 -9.927600 180.649796
lradius 41.452202
lwrist -5.693180
lhand -10.020920 -42.593800
lfingers 14.250040
lthumb 41.566799 15.220120
rfemur 31.174400 1.691896 48.215801
rtibia 40.437401
rfoot 23.792999 11.972340
rtoes -32.404800
lfemur -82.652000 3.073760 -42.241199
ltibia 70.166000
lfoot -3.456080 15.724340
ltoes 4.432380
426
root 20.532000 33.807201 48.381199 15.721060 -0.730766 -4.281580
lowerback -15.781620 5.435760 -1.080560
upperback -4.750840 7.252740 2.677900
thorax 3.679120 3.625540 4.035060
lowerneck -37.988602 -13.530900 -29.484200
upperneck 44.463402 -17.313419 27.465799
head 23.411400 -7.168920 12.438680
rclavicle -0.000000 -0.000000
rhumerus -79.431198 16.555321 -177.587799
rradius 62.418400
rwrist -26.129000
rhand -53.323601 -57.900200
rfingers 14.250040
rthumb -0.186954 -117.859802
lclavicle -0.000000 -0.000000
lhumerus -96.169197 -9.042620 179.870605
lradius 40.700401
lwrist -6.683200
lhand -11.350220 -42.984600
lfingers 14.250040
lthumb 40.289398 14.966600
rfemur 27.737200 0.925868 46.193600
rtibia 47.987202
rfoot 25.658600 12.260860
rtoes -29.531601
lfemur -81.099197 3.594980 -43.667801
ltibia 69.867599
lfoot -4.530300 15.543080
ltoes 5.509980
427
root 20.592400 33.868801 48.676800 15.773000 -1.401440 -3.494940
lowerback -15.761580 5.355020 -1.744638
upperback -4.623280 7.199840 2.523140
thorax 3.770540 3.596740 4.244760
lowerneck -38.209999 -13.431580 -29.609400
upperneck 44.081799 -17.072359 27.518200
head 23.277599 -7.056680 12.505020
rclavicle -0.000000 0.000000
rhumerus -80.065804 17.016460 -177.899002
rradius 62.000401
rwrist -26.293800
rhand -52.573200 -59.483398
rfingers 14.250040
rthumb 0.537858 -119.442596
lclavicle -0.000000 0.000000
lhumerus -94.245598 -7.681400 178.945206
lradius 39.937401
lwrist -8.103340
lhand -14.301000 -44.618999
lfingers 14.250040
lthumb 37.452202 13.618280
rfemur 24.268999 0.474570 44.535599
rtibia 55.151199
rfoot 27.249800 13.195440
rtoes -30.063999
lfemur -79.723602 4.125700 -44.832802
ltibia 69.622803
lfoot -5.668180 15.333120
ltoes 9.916000
